<svg width="27" height="22" viewBox="0 0 27 22" fill="none" xmlns="http://www.w3.org/2000/svg">
<path d="M26.5446 19.9129C26.4459 20.381 26.2953 20.8231 25.9675 21.1899C25.5578 21.6483 25.0521 21.9144 24.4425 21.9787C24.2971 21.9943 24.1491 21.9956 24.0023 21.9956C16.8495 21.9962 9.69728 21.9936 2.54443 21.9995C1.70631 22.0001 1.00518 21.7404 0.482578 21.0666C0.152785 20.6407 0.00866357 20.1493 0.00671598 19.6182C0.0015224 18.2361 -0.00886475 16.8539 0.00931277 15.4718C0.0372283 13.4184 1.60634 11.7519 3.6591 11.6461C4.73482 11.5909 5.81963 11.6071 6.8947 11.6798C7.34524 11.7103 7.5783 11.6519 7.85032 11.2572C8.57482 10.2055 9.62652 9.66147 10.9106 9.64654C12.5343 9.62771 14.1592 9.61018 15.7822 9.65952C17.1267 9.70042 18.1602 10.3613 18.8711 11.5013C18.9957 11.7013 19.1048 11.785 19.3366 11.711C19.482 11.6649 19.6423 11.6474 19.7962 11.648C20.918 11.65 22.0463 11.5876 23.161 11.6831C24.8489 11.8272 26.2349 13.223 26.4914 14.8947C26.5018 14.9615 26.5258 15.0264 26.5433 15.0927C26.5446 16.6994 26.5446 18.3062 26.5446 19.9129ZM17.8882 20.4291C17.8927 20.3401 17.8979 20.2804 17.8979 20.2207C17.8986 18.0192 17.9044 15.8178 17.896 13.6164C17.8908 12.1784 16.9073 11.2027 15.4641 11.1949C14.0054 11.1871 12.546 11.1897 11.0872 11.1968C10.8477 11.1981 10.5997 11.2176 10.3712 11.2832C9.2792 11.598 8.65467 12.4582 8.65273 13.6404C8.64818 15.8243 8.65143 18.0089 8.65208 20.1928C8.65208 20.2674 8.66117 20.3427 8.66701 20.4284C11.7442 20.4291 14.8045 20.4291 17.8882 20.4291ZM7.0966 20.4271C7.0966 20.307 7.0966 20.2057 7.0966 20.1045C7.0966 17.9985 7.0966 15.8925 7.0966 13.7865C7.0966 13.1983 7.0966 13.1892 6.4883 13.1827C5.6424 13.1736 4.79649 13.1749 3.95059 13.1834C3.74544 13.1853 3.53445 13.208 3.33775 13.2626C2.22567 13.5677 1.56739 14.437 1.56219 15.6055C1.55635 16.9091 1.56025 18.212 1.56089 19.5156C1.56154 20.1577 1.84654 20.4414 2.49574 20.442C3.93696 20.4433 5.37882 20.4427 6.82004 20.442C6.90314 20.4407 6.98689 20.433 7.0966 20.4271ZM19.4534 20.4037C19.5034 20.4213 19.5268 20.4368 19.5502 20.4368C21.1212 20.4375 22.6916 20.4433 24.2627 20.4323C24.6762 20.4297 24.9839 20.0973 24.9859 19.6688C24.993 18.2705 25.0125 16.8715 24.9794 15.4744C24.9508 14.2422 24.1082 13.3366 22.8805 13.2178C22.1963 13.1516 21.5016 13.1821 20.8115 13.1821C20.4324 13.1821 20.0539 13.2093 19.6748 13.2204C19.5041 13.2256 19.4469 13.295 19.4476 13.4768C19.4554 15.6867 19.4534 17.8959 19.4534 20.1058C19.4534 20.2064 19.4534 20.3077 19.4534 20.4037Z" fill="url(#paint0_linear_294_190)"/>
<path d="M17.8879 4.61971C17.882 7.15613 15.7916 9.2394 13.2649 9.22772C10.7246 9.21538 8.65434 7.13405 8.66213 4.60024C8.66927 2.05668 10.7448 -0.00841379 13.2844 2.57761e-05C15.8306 0.00846534 17.8937 2.07876 17.8879 4.61971ZM13.2792 1.55485C11.5874 1.55291 10.2163 2.92141 10.217 4.61192C10.2176 6.29659 11.6036 7.68003 13.2838 7.67289C14.9587 7.66575 16.3285 6.29399 16.333 4.62101C16.3369 2.9292 14.971 1.55745 13.2792 1.55485Z" fill="url(#paint1_linear_294_190)"/>
<path d="M5.1826 4.28863C7.0815 4.2776 8.6545 5.84411 8.64996 7.74236C8.64541 9.63412 7.09643 11.1857 5.20272 11.1954C3.30642 11.2052 1.73536 9.63672 1.73731 7.73652C1.73925 5.84151 3.2798 4.29967 5.1826 4.28863ZM3.29538 7.74561C3.30187 8.78303 4.17115 9.64711 5.19883 9.63867C6.23495 9.63023 7.10162 8.75836 7.09253 7.73392C7.08345 6.69326 6.22391 5.84216 5.18649 5.84671C4.14453 5.85125 3.28889 6.71014 3.29538 7.74561Z" fill="url(#paint2_linear_294_190)"/>
<path d="M21.3571 4.28858C23.2541 4.28728 24.7946 5.81873 24.8141 7.72543C24.8329 9.61524 23.2612 11.1947 21.3604 11.196C19.4621 11.1973 17.8891 9.62043 17.9014 7.72867C17.9131 5.82977 19.4608 4.29052 21.3571 4.28858ZM21.3922 5.8473C20.3619 5.81744 19.5076 6.63867 19.4595 7.70595C19.4141 8.70961 20.2691 9.59447 21.3247 9.63796C22.3361 9.67951 23.2132 8.83166 23.2541 7.77347C23.293 6.75423 22.4458 5.87781 21.3922 5.8473Z" fill="url(#paint3_linear_294_190)"/>
<defs>
<linearGradient id="paint0_linear_294_190" x1="-4.12553" y1="11.6895" x2="12.3579" y2="33.0905" gradientUnits="userSpaceOnUse">
<stop stop-color="#20D4FE"/>
<stop offset="1" stop-color="#B722FF"/>
</linearGradient>
<linearGradient id="paint1_linear_294_190" x1="7.22864" y1="1.538" x2="18.4918" y2="8.35201" gradientUnits="userSpaceOnUse">
<stop stop-color="#20D4FE"/>
<stop offset="1" stop-color="#B722FF"/>
</linearGradient>
<linearGradient id="paint2_linear_294_190" x1="0.663241" y1="5.43976" x2="9.09774" y2="10.5478" gradientUnits="userSpaceOnUse">
<stop stop-color="#20D4FE"/>
<stop offset="1" stop-color="#B722FF"/>
</linearGradient>
<linearGradient id="paint3_linear_294_190" x1="16.8273" y1="5.43985" x2="25.2623" y2="10.548" gradientUnits="userSpaceOnUse">
<stop stop-color="#20D4FE"/>
<stop offset="1" stop-color="#B722FF"/>
</linearGradient>
</defs>
</svg>
