<svg width="28" height="28" viewBox="0 0 28 28" fill="none" xmlns="http://www.w3.org/2000/svg">
<path d="M0.202148 12.9804C1.45136 11.2829 2.69991 9.58527 3.94912 7.88769C4.28405 7.43189 4.61627 6.97407 4.9539 6.5203C5.22535 6.15634 5.53597 6.15567 5.80269 6.51828C7.32808 8.59535 8.85213 10.6731 10.3768 12.7509C10.5018 12.9217 10.6159 13.0946 10.5045 13.3181C10.389 13.5483 10.1824 13.574 9.95617 13.572C9.44635 13.5672 8.93653 13.5706 8.40579 13.5706C8.40579 14.5794 8.40579 15.564 8.40579 16.5694C8.1134 16.5694 7.84128 16.5694 7.55024 16.5694C7.54552 16.4924 7.53606 16.4148 7.53606 16.3371C7.53539 15.3222 7.53471 14.3066 7.53606 13.2917C7.53674 12.8515 7.67787 12.7103 8.11543 12.7083C8.48074 12.707 8.84605 12.7076 9.27416 12.7076C7.9608 10.9169 6.68052 9.17134 5.37931 7.39678C4.08012 9.16864 2.80322 10.9108 1.49661 12.6928C2.8066 12.6928 4.07404 12.6928 5.35972 12.6928C5.35972 12.9939 5.35972 13.2667 5.35972 13.5598C4.65881 13.5598 3.96195 13.5598 3.23471 13.5598C3.23471 16.1528 3.23471 18.7248 3.23471 21.3158C2.93287 21.3158 2.66074 21.3158 2.36768 21.3158C2.36768 18.743 2.36768 16.1778 2.36768 13.5706C2.04761 13.5706 1.74645 13.5706 1.44529 13.5706C1.22988 13.5706 1.0138 13.5618 0.798396 13.5726C0.529646 13.5861 0.325044 13.4984 0.202824 13.2499C0.202148 13.1601 0.202148 13.0702 0.202148 12.9804Z" fill="url(#paint0_linear_294_232)"/>
<path d="M3.43703 21.5189H2.16486V13.7738H1.44504C1.37819 13.7738 1.31066 13.7731 1.24381 13.7718C1.09323 13.7697 0.95143 13.7684 0.808952 13.7751C0.438239 13.7947 0.172865 13.6475 0.0209328 13.3389L0 13.2971V12.9142L3.78614 7.76811C3.90566 7.60605 4.0245 7.44331 4.14335 7.28058C4.3547 6.99089 4.57416 6.69176 4.79226 6.39937C5.01105 6.10631 5.2332 6.04419 5.38176 6.04419C5.38243 6.04419 5.38311 6.04419 5.38379 6.04419C5.53167 6.04486 5.75247 6.10631 5.9672 6.3987C7.10163 7.943 8.2347 9.48797 9.36845 11.033L10.5414 12.6319C10.6602 12.794 10.8594 13.0648 10.6865 13.4098C10.5008 13.7812 10.1328 13.7779 9.95524 13.7758C9.59601 13.7724 9.24218 13.7731 8.86809 13.7738C8.78233 13.7738 8.69657 13.7738 8.61014 13.7745V16.7733H7.36025L7.34809 16.5842C7.34674 16.5612 7.34472 16.5383 7.34269 16.5146C7.33797 16.4586 7.33324 16.3999 7.33324 16.3384C7.33256 15.3228 7.33189 14.3079 7.33324 13.293C7.33391 12.7447 7.56755 12.5097 8.11383 12.5077C8.36097 12.5064 8.60744 12.507 8.87349 12.507L5.37906 7.74177L1.89611 12.4922H5.56205V13.7643H3.43703V21.5189ZM2.57001 21.1138H3.03188V13.3578H5.1569V12.896H1.09593L5.37838 7.05504L9.67299 12.9108H8.88159C8.61284 12.9108 8.36435 12.9102 8.11518 12.9115C7.78768 12.9129 7.73839 12.9628 7.73771 13.2923C7.73636 14.3072 7.73704 15.3222 7.73771 16.3371C7.73771 16.3472 7.73771 16.3566 7.73839 16.3668H8.20296V13.368H8.40554C8.56017 13.368 8.71345 13.368 8.86539 13.3673C9.24083 13.3666 9.59533 13.3659 9.95727 13.3693C10.1855 13.3713 10.2665 13.3396 10.3226 13.2275C10.3719 13.1283 10.3509 13.0587 10.2132 12.871L9.04028 11.272C7.9072 9.72701 6.77345 8.18204 5.63971 6.63774C5.55057 6.51619 5.45874 6.44867 5.38176 6.44867C5.38176 6.44867 5.38176 6.44867 5.38108 6.44867C5.30276 6.44867 5.20889 6.51687 5.11639 6.64044C4.89963 6.93147 4.68085 7.22993 4.47017 7.51894C4.35132 7.68168 4.23181 7.84441 4.11229 8.00715L0.405151 13.0466V13.1985C0.483481 13.3295 0.597598 13.3801 0.788019 13.37C0.943327 13.3619 1.09864 13.3639 1.24854 13.3659C1.31404 13.3666 1.37954 13.3673 1.44504 13.3673H2.57001V21.1138Z" fill="url(#paint1_linear_294_232)"/>
<path d="M14.1123 0.202637C14.2399 0.324182 14.3892 0.430197 14.4925 0.570649C15.9834 2.59438 17.4683 4.62284 18.9545 6.64994C18.9917 6.70059 19.0491 6.74718 19.0606 6.8039C19.0936 6.96123 19.1747 7.15908 19.1126 7.27185C19.0423 7.39812 18.8404 7.51021 18.6878 7.52102C18.232 7.55343 17.7729 7.5325 17.3144 7.5325C17.2266 7.5325 17.1395 7.5325 17.0314 7.5325C17.0314 8.11051 17.0314 8.66422 17.0314 9.23751C16.739 9.23751 16.4669 9.23751 16.1712 9.23751C16.1712 8.50351 16.1556 7.76951 16.1793 7.03754C16.188 6.77689 16.4034 6.66885 16.6607 6.66952C17.053 6.67087 17.4447 6.6702 17.8991 6.6702C16.5858 4.87876 15.3055 3.13323 14.0043 1.35934C12.7051 3.13053 11.4275 4.872 10.1087 6.6702C10.5031 6.6702 10.8454 6.6702 11.1878 6.6702C11.7334 6.67087 11.8468 6.78499 11.8475 7.33532C11.8475 7.96331 11.8475 8.59129 11.8475 9.23818C11.5612 9.23818 11.2891 9.23818 10.9953 9.23818C10.9953 8.68245 10.9953 8.12874 10.9953 7.5325C10.6658 7.5325 10.3559 7.5325 10.0459 7.5325C9.83054 7.5325 9.61513 7.52979 9.39905 7.53317C9.18027 7.53655 8.9858 7.49603 8.87708 7.2786C8.77174 7.06792 8.8683 6.90114 8.99052 6.73435C10.2607 5.00503 11.5288 3.27436 12.7976 1.54436C13.0366 1.21889 13.2682 0.886667 13.5174 0.569299C13.6248 0.432222 13.7693 0.324182 13.8962 0.202637C13.9685 0.202637 14.0401 0.202637 14.1123 0.202637Z" fill="url(#paint2_linear_294_232)"/>
<path d="M12.0501 9.4407H10.7928V7.73501H10.0459C9.97975 7.73501 9.91358 7.73501 9.84673 7.73434C9.69817 7.73366 9.55029 7.73299 9.40241 7.73569C9.17958 7.73906 8.86423 7.7053 8.6961 7.3697C8.52458 7.02735 8.72918 6.74847 8.82709 6.61477C9.85618 5.21295 10.8846 3.81112 11.913 2.40862L12.6342 1.42478C12.7037 1.32957 12.7733 1.23369 12.8421 1.1378C13.0076 0.908889 13.1791 0.671876 13.3574 0.444316C13.4424 0.3356 13.5424 0.247142 13.6389 0.16206C13.6788 0.126947 13.7179 0.0918343 13.7564 0.0560459L13.8152 0H14.1933L14.2521 0.0560459C14.2906 0.0925095 14.3304 0.127623 14.3709 0.162736C14.4695 0.248493 14.5715 0.336951 14.6552 0.450393C15.8788 2.11151 17.1192 3.80369 18.3184 5.43983L19.1179 6.53036C19.126 6.54117 19.1355 6.55129 19.1449 6.5621C19.1848 6.60802 19.2402 6.67081 19.2591 6.7613C19.2665 6.79506 19.2759 6.83017 19.2854 6.86664C19.3286 7.0287 19.3772 7.21169 19.2901 7.3697C19.1774 7.57228 18.9032 7.70868 18.702 7.72286C18.3657 7.74649 18.0267 7.74244 17.6979 7.73839C17.5709 7.73704 17.4447 7.73501 17.3177 7.73501C17.3164 7.73501 17.3157 7.73501 17.3143 7.73501H17.234V9.44002H15.9686V9.23745C15.9686 9.03015 15.9672 8.82284 15.9659 8.61622C15.9625 8.09695 15.9598 7.56012 15.9767 7.03072C15.9881 6.6877 16.2549 6.46689 16.6573 6.46689C16.6587 6.46689 16.66 6.46689 16.6614 6.46689C16.9335 6.46824 17.2063 6.46756 17.4994 6.46756H17.5L14.0043 1.70164L10.5085 6.46756H11.1878C11.8482 6.46824 12.0494 6.67081 12.0494 7.33526V8.59258L12.0501 9.4407ZM11.1979 9.03555H11.6449V8.59191V7.33459C11.6449 6.89365 11.6233 6.87204 11.1878 6.87204H10.4788H9.70897L14.0043 1.01625L18.2989 6.87271H17.4994C17.2049 6.87271 16.9321 6.87339 16.6593 6.87204C16.658 6.87204 16.6573 6.87204 16.656 6.87204C16.3865 6.87204 16.3825 7.00169 16.3811 7.04423C16.3643 7.56552 16.367 8.0983 16.3703 8.61351C16.371 8.75397 16.3724 8.89442 16.3724 9.03487H16.8275V7.32986H17.313C17.3143 7.32986 17.315 7.32986 17.3164 7.32986C17.4447 7.32986 17.573 7.33121 17.7019 7.33324C18.022 7.33729 18.3529 7.34134 18.6723 7.31906C18.7655 7.3123 18.8958 7.23465 18.9316 7.1786C18.9376 7.14079 18.91 7.03478 18.8924 6.9713C18.8823 6.93349 18.8721 6.89567 18.8647 6.85988C18.8586 6.85178 18.8465 6.83828 18.8384 6.82882C18.8215 6.80924 18.8046 6.78966 18.7898 6.77008L17.9916 5.67887C16.7924 4.04273 15.5526 2.35123 14.3291 0.690108C14.2717 0.612454 14.1906 0.542227 14.1049 0.46795C14.0806 0.447017 14.0569 0.426084 14.0326 0.404476H13.9752C13.9529 0.424733 13.93 0.444991 13.907 0.465249C13.8206 0.542227 13.7382 0.614479 13.6761 0.694159C13.5025 0.915642 13.3337 1.14928 13.1703 1.37481C13.1008 1.47137 13.0305 1.56794 12.9603 1.66382L12.2391 2.64766C11.2107 4.05016 10.1823 5.45266 9.15324 6.85448C9.03102 7.02127 9.01009 7.09285 9.05803 7.18806C9.10462 7.28124 9.17552 7.33391 9.39566 7.33054C9.54691 7.32783 9.7002 7.32851 9.84808 7.32919C9.91358 7.32919 9.97975 7.32986 10.0453 7.32986H11.1972V9.03555H11.1979Z" fill="url(#paint3_linear_294_232)"/>
<path d="M19.6117 27.7975C19.3112 27.7975 19.0519 27.7975 18.7487 27.7975C18.7487 27.6908 18.7487 27.5875 18.7487 27.4849C18.7487 25.5442 18.7581 23.6028 18.7413 21.6622C18.7372 21.2199 18.5704 20.8397 18.0998 20.65C17.4009 20.3691 16.7121 20.0618 16.024 19.7553C15.8863 19.6938 15.8019 19.7053 15.6972 19.814C15.3285 20.1948 14.9436 20.5602 14.5804 20.9457C14.5 21.0315 14.444 21.176 14.4419 21.2942C14.4291 22.0119 14.4359 22.7304 14.4359 23.4698C14.1516 23.4698 13.8794 23.4698 13.5729 23.4698C13.5729 22.9796 13.5283 22.4833 13.5837 21.9991C13.6607 21.3306 13.4594 20.8262 12.9246 20.4231C12.6903 20.2462 12.5087 20.001 12.2865 19.8052C12.2251 19.7512 12.088 19.7222 12.0151 19.7526C11.2453 20.074 10.4708 20.3873 9.72057 20.7506C9.38902 20.9113 9.26612 21.2766 9.26477 21.6318C9.25397 23.5812 9.25937 25.5314 9.25937 27.4815C9.25937 27.5787 9.25937 27.6753 9.25937 27.788C8.97171 27.788 8.70566 27.788 8.3964 27.788C8.3964 27.6982 8.3964 27.6044 8.3964 27.5098C8.3964 25.5152 8.36264 23.5191 8.41531 21.5258C8.43354 20.8465 8.70094 20.2083 9.44709 19.9126C10.2223 19.6053 10.9745 19.2407 11.7483 18.9294C12.0056 18.8261 11.9914 18.606 12.084 18.4243C12.1974 18.2015 12.1258 18.0691 11.955 17.8997C11.3182 17.2683 11.0279 16.4661 11.0022 15.5903C10.9664 14.36 10.9806 13.1283 10.9948 11.898C10.9968 11.7522 11.0994 11.5644 11.2156 11.4699C11.957 10.8656 12.8159 10.5799 13.7741 10.5475C14.8714 10.5097 15.8735 10.7494 16.7567 11.4267C16.9464 11.5725 17.0268 11.7427 17.0254 11.9777C17.02 13.0466 17.0227 14.1162 17.0227 15.1851C17.0227 16.277 16.754 17.2642 15.9214 18.034C15.8897 18.0631 15.8539 18.1009 15.8458 18.1401C15.8053 18.3332 16.0956 18.8504 16.286 18.9328C17.1011 19.286 17.9141 19.6432 18.7325 19.9875C18.9607 20.0834 19.1045 20.2333 19.2315 20.4454C19.5367 20.9572 19.6292 21.4954 19.6211 22.0889C19.5955 23.8858 19.6117 25.6833 19.6117 27.4801C19.6117 27.578 19.6117 27.6746 19.6117 27.7975ZM16.1557 14.8259C15.6628 14.7388 15.2637 14.5119 14.9943 14.0804C14.9632 14.0305 14.8579 14.0062 14.7863 14.0055C14.2657 13.9994 13.7444 13.9994 13.2238 14.0055C13.1522 14.0062 13.0469 14.0298 13.0158 14.0798C12.7457 14.5106 12.348 14.7388 11.8571 14.8246C11.8186 15.5795 11.8935 16.2899 12.2784 16.9449C12.9321 18.055 14.6607 18.2164 15.5014 17.244C16.1044 16.5465 16.1861 15.7118 16.1557 14.8259ZM11.8476 13.9245C12.0873 13.8684 12.2345 13.7766 12.2845 13.547C12.352 13.2377 12.4763 13.1425 12.7909 13.1412C13.5979 13.1378 14.4055 13.1378 15.2124 13.1412C15.5311 13.1425 15.6547 13.2364 15.7236 13.5429C15.7762 13.7786 15.9167 13.8826 16.1604 13.9062C16.1604 13.3154 16.1652 12.7421 16.1544 12.1695C16.153 12.1006 16.0862 12.0047 16.0227 11.9689C14.6803 11.2086 13.3318 11.2072 11.9894 11.9676C11.9219 12.0061 11.855 12.1141 11.8537 12.1918C11.8429 12.7549 11.8476 13.3194 11.8476 13.9245ZM12.9024 18.5425C12.8801 18.7748 12.7795 19.0226 12.8598 19.1171C13.2109 19.5297 13.6147 19.8977 14.0104 20.2928C14.3454 19.9551 14.654 19.6425 14.9646 19.3305C15.2637 19.03 15.2698 18.9713 15.0179 18.5641C14.342 18.8031 13.6539 18.7856 12.9024 18.5425Z" fill="url(#paint4_linear_294_232)"/>
<path d="M19.8146 28H18.5471V27.4848C18.5471 26.9689 18.5478 26.453 18.5485 25.9371C18.5505 24.5366 18.5519 23.0882 18.5397 21.6641C18.5363 21.2407 18.3723 20.978 18.0252 20.8383C17.3384 20.5621 16.6524 20.2569 15.9886 19.9611L15.9427 19.9408C15.9015 19.9226 15.8853 19.9213 15.8826 19.9213C15.8826 19.9219 15.8698 19.9287 15.8434 19.955C15.6821 20.1218 15.5159 20.2872 15.3552 20.448C15.1473 20.6553 14.9325 20.8693 14.7286 21.0854C14.684 21.1327 14.6462 21.2285 14.6449 21.2988C14.6354 21.8342 14.6368 22.3603 14.6381 22.9167C14.6388 23.1003 14.6388 23.2847 14.6388 23.4711V23.6736H13.3713V23.4711C13.3713 23.3225 13.3673 23.1699 13.3626 23.022C13.3531 22.6803 13.343 22.3265 13.3835 21.9767C13.4537 21.3697 13.2748 20.9402 12.8041 20.585C12.6556 20.4729 12.5306 20.3406 12.4091 20.2123C12.3227 20.1211 12.241 20.0347 12.1539 19.957C12.1431 19.9503 12.1059 19.9415 12.087 19.9429L11.7831 20.0691C11.1302 20.3406 10.4549 20.6208 9.81073 20.9328C9.51565 21.0759 9.46973 21.4325 9.46906 21.633C9.46095 23.0848 9.4623 24.5609 9.46298 25.9884C9.46298 26.4861 9.46365 26.9837 9.46365 27.4814V27.9905H8.19621V27.5097C8.19621 26.9486 8.1935 26.3875 8.1908 25.8263C8.18405 24.4151 8.1773 22.9565 8.21511 21.5209C8.23807 20.637 8.63917 20.0165 9.37452 19.7248C9.77157 19.5674 10.1706 19.3912 10.5569 19.2203C10.9208 19.0596 11.2976 18.8935 11.6744 18.7416C11.7683 18.7038 11.7879 18.6552 11.8324 18.5188C11.8513 18.462 11.8723 18.3972 11.9047 18.3324C11.956 18.2318 11.9648 18.1933 11.8135 18.0434C11.1707 17.4053 10.8297 16.5821 10.8007 15.5963C10.7642 14.3572 10.779 13.1059 10.7932 11.8952C10.7959 11.6953 10.9195 11.4502 11.0883 11.3125C11.8338 10.7054 12.7352 10.3793 13.7684 10.3442C15.0007 10.3023 16.0183 10.6035 16.8813 11.2652C17.1203 11.4482 17.2304 11.6751 17.2291 11.9783C17.225 12.7649 17.2257 13.5651 17.2264 14.339L17.227 15.185C17.227 16.4761 16.8455 17.4566 16.0602 18.1825C16.0534 18.1886 16.0487 18.1933 16.0447 18.1973C16.0528 18.3317 16.2614 18.6957 16.3674 18.747C16.5808 18.8395 16.7949 18.9327 17.0089 19.0252C17.5991 19.2818 18.2088 19.5472 18.8118 19.8004C19.063 19.9057 19.246 20.0725 19.4061 20.3413C19.7012 20.8369 19.8342 21.3926 19.824 22.0915C19.8058 23.3833 19.8092 24.6973 19.8119 25.9681C19.8132 26.4719 19.8146 26.9756 19.8146 27.4794V28ZM18.9516 27.5948H19.4088V27.4807C19.4088 26.977 19.4074 26.4739 19.4061 25.9702C19.4027 24.6973 19.3993 23.3812 19.4182 22.0861C19.427 21.4575 19.3156 20.9834 19.057 20.5492C18.9408 20.3548 18.824 20.2461 18.6538 20.1745C18.0488 19.9199 17.4377 19.6545 16.8469 19.3973C16.6335 19.3041 16.4194 19.2116 16.2054 19.1191C15.9427 19.0056 15.5828 18.4073 15.6476 18.0988C15.6679 18.0029 15.7313 17.9347 15.784 17.8854C16.491 17.2317 16.8205 16.3735 16.8205 15.185L16.8198 14.339C16.8192 13.5644 16.8185 12.7636 16.8226 11.9762C16.8232 11.8014 16.7706 11.692 16.6335 11.5866C15.8482 10.9843 14.9136 10.7101 13.7812 10.7486C12.8251 10.781 12.0283 11.068 11.3436 11.6258C11.2693 11.6859 11.1984 11.8189 11.1977 11.8986C11.1835 13.1046 11.1687 14.3518 11.2045 15.5828C11.2301 16.4613 11.5306 17.1919 12.0978 17.7544C12.2801 17.9347 12.4422 18.1663 12.2646 18.5147C12.2464 18.5512 12.2315 18.5957 12.216 18.643C12.166 18.7963 12.0978 19.0063 11.8237 19.1164C11.4529 19.2656 11.0795 19.4303 10.7189 19.5897C10.3293 19.7619 9.9262 19.9395 9.52173 20.1002C8.94101 20.3305 8.63714 20.8119 8.61824 21.5304C8.58042 22.9592 8.58718 24.4151 8.59393 25.823C8.59663 26.3848 8.59933 26.9466 8.59933 27.5084V27.584H9.05648V27.48C9.05648 26.9824 9.0558 26.4847 9.0558 25.9877C9.05445 24.5596 9.05378 23.0828 9.06188 21.6296C9.06458 21.1286 9.27256 20.741 9.63247 20.5668C10.2868 20.2501 10.9674 19.9672 11.6258 19.6937L11.9371 19.5641C12.0924 19.4992 12.3125 19.5566 12.4199 19.6512C12.5212 19.741 12.613 19.8375 12.7022 19.9321C12.817 20.0536 12.925 20.1684 13.0465 20.2596C13.6293 20.6991 13.8703 21.2751 13.7846 22.0206C13.7475 22.3414 13.7569 22.6648 13.7664 23.0078C13.7691 23.0922 13.7711 23.1787 13.7731 23.2658H14.2323C14.2323 23.1483 14.2316 23.0315 14.2316 22.9153C14.2303 22.3569 14.2296 21.8288 14.2384 21.2893C14.2417 21.1171 14.3174 20.9274 14.4322 20.8058C14.6401 20.585 14.8576 20.369 15.0676 20.1589C15.2269 20.0003 15.3924 19.8355 15.5511 19.6714C15.7124 19.5046 15.8887 19.4722 16.1054 19.5681L16.1514 19.5884C16.8117 19.8821 17.4944 20.186 18.1744 20.4594C18.6721 20.6593 18.9381 21.0739 18.9435 21.6573C18.9557 23.0835 18.9536 24.5326 18.9523 25.9344C18.9516 26.4503 18.9509 26.9662 18.9509 27.4821V27.5948H18.9516ZM14.0115 20.5796L13.8676 20.4358C13.7623 20.3305 13.6563 20.2278 13.5516 20.1252C13.2653 19.8463 12.9696 19.558 12.7062 19.2487C12.5887 19.111 12.6279 18.9192 12.6657 18.7335C12.6799 18.6633 12.6947 18.5903 12.7015 18.5228L12.7258 18.2723L12.9655 18.3499C13.6867 18.5836 14.3356 18.591 14.9508 18.3736L15.1047 18.3196L15.1905 18.4587C15.4896 18.9428 15.4768 19.1042 15.1088 19.4742C14.8994 19.6849 14.6901 19.8956 14.4733 20.1144L14.0115 20.5796ZM13.0317 19.0063C13.2782 19.2933 13.5483 19.5566 13.8339 19.8355C13.892 19.8922 13.9507 19.9496 14.0088 20.007L14.1843 19.8294C14.4011 19.61 14.6104 19.3993 14.8204 19.1886C14.8717 19.1373 14.9919 19.0157 14.9953 18.9739C14.9973 18.9435 14.9643 18.8753 14.9264 18.8078C14.3383 18.982 13.7258 18.9806 13.0648 18.8024C13.0641 18.8064 13.0634 18.8105 13.0621 18.8145C13.0499 18.8753 13.0317 18.9644 13.0317 19.0063ZM14.0243 18.0873C13.9521 18.0873 13.8798 18.0839 13.8069 18.0771C13.0817 18.0116 12.4449 17.6268 12.1039 17.0474C11.7453 16.439 11.6069 15.7502 11.6542 14.8143L11.6623 14.6529L11.8216 14.6253C12.2849 14.5442 12.6191 14.3308 12.844 13.9723C12.9426 13.8143 13.1755 13.8035 13.2214 13.8028C13.7421 13.7967 14.2694 13.7967 14.7887 13.8028C14.8339 13.8035 15.0662 13.8136 15.1662 13.973C15.3897 14.3295 15.7253 14.5436 16.1912 14.6259L16.3526 14.6543L16.358 14.8184C16.3877 15.6895 16.3235 16.6024 15.6544 17.3756C15.2627 17.8293 14.6651 18.0873 14.0243 18.0873ZM12.0532 14.9906C12.0316 15.7631 12.1572 16.339 12.453 16.8421C12.7278 17.3094 13.2478 17.62 13.8433 17.674C14.4355 17.728 14.9973 17.5174 15.3485 17.1115C15.8873 16.4883 15.9711 15.7306 15.9576 14.9912C15.472 14.8704 15.0966 14.6104 14.8407 14.2174C14.8258 14.2134 14.8035 14.2093 14.784 14.2086C14.2681 14.2025 13.7441 14.2025 13.2262 14.2086C13.2059 14.2086 13.1836 14.2127 13.1688 14.2174C12.9115 14.6111 12.5367 14.871 12.0532 14.9906ZM14.8225 14.1877C14.8225 14.1884 14.8225 14.1884 14.8225 14.1877C14.8225 14.1884 14.8225 14.1884 14.8225 14.1877ZM13.1877 14.187C13.1877 14.1877 13.1877 14.1877 13.1877 14.187C13.1877 14.1877 13.1877 14.1877 13.1877 14.187ZM11.6454 14.1796V13.9243C11.6454 13.7778 11.6454 13.634 11.6447 13.4915C11.644 13.0418 11.6427 12.6164 11.6515 12.1869C11.6542 12.039 11.7588 11.8648 11.8898 11.7905C13.293 10.9958 14.7171 10.9958 16.123 11.7919C16.2358 11.856 16.3546 12.0127 16.3573 12.1646C16.3654 12.6056 16.3647 13.0377 16.3641 13.4942C16.3641 13.6306 16.3634 13.767 16.3634 13.9048V14.1276L16.1412 14.106C15.8029 14.0736 15.5956 13.898 15.5261 13.5854C15.4788 13.3747 15.4383 13.343 15.2121 13.3423C14.3896 13.3389 13.5753 13.3389 12.7926 13.3423C12.5705 13.343 12.53 13.3754 12.4827 13.5894C12.4024 13.9568 12.1255 14.0661 11.8939 14.1208L11.6454 14.1796ZM14.0027 12.9358C14.4024 12.9358 14.8076 12.9365 15.2141 12.9385C15.628 12.9405 15.8333 13.1026 15.9218 13.4983C15.9305 13.5388 15.942 13.5732 15.9589 13.6009C15.9589 13.5651 15.9589 13.5293 15.9589 13.4935C15.9596 13.0425 15.9603 12.6164 15.9528 12.1829C15.9467 12.17 15.9319 12.1498 15.9218 12.143C14.6509 11.4239 13.3605 11.4232 12.0897 12.143C12.0796 12.1511 12.0593 12.1842 12.0559 12.2004C12.0478 12.6198 12.0485 13.0425 12.0499 13.4902C12.0499 13.5266 12.0499 13.5631 12.0499 13.5995C12.0681 13.5725 12.0782 13.5408 12.0863 13.5037C12.1741 13.1039 12.378 12.9405 12.7899 12.9385C13.1877 12.9365 13.5928 12.9358 14.0027 12.9358Z" fill="url(#paint5_linear_294_232)"/>
<path d="M25.6555 13.5707C25.6555 16.1637 25.6555 18.7296 25.6555 21.3145C25.3637 21.3145 25.0916 21.3145 24.7986 21.3145C24.7986 18.7458 24.7986 16.1805 24.7986 13.5842C24.0754 13.5842 23.3718 13.5842 22.6499 13.5842C22.6499 13.2817 22.6499 13.0096 22.6499 12.7098C23.9241 12.7098 25.1929 12.7098 26.5252 12.7098C25.2138 10.9203 23.9376 9.17886 22.6317 7.39687C21.3365 9.16198 20.0563 10.9075 18.7355 12.7077C19.1413 12.7077 19.4938 12.7071 19.8463 12.7077C20.3432 12.7084 20.4742 12.836 20.4742 13.3236C20.4749 14.3999 20.4742 15.4769 20.4742 16.5715C20.1846 16.5715 19.9124 16.5715 19.6187 16.5715C19.6187 15.5796 19.6187 14.5951 19.6187 13.5707C19.2527 13.5707 18.9063 13.5707 18.5606 13.5707C18.3627 13.5707 18.1656 13.5707 17.9677 13.5707C17.7651 13.57 17.5599 13.516 17.5139 13.3107C17.4802 13.1581 17.5079 12.9447 17.5956 12.8191C18.0987 12.0973 18.6274 11.3944 19.1481 10.6847C20.1461 9.32337 21.1448 7.96273 22.1435 6.60143C22.4946 6.12335 22.7674 6.12537 23.1226 6.60953C24.6095 8.63663 26.0964 10.6637 27.5833 12.6908C27.6258 12.7489 27.6704 12.8056 27.7075 12.8664C27.9176 13.2101 27.742 13.5552 27.3375 13.5673C26.8797 13.5808 26.4212 13.5707 25.9634 13.5714C25.8682 13.5707 25.7716 13.5707 25.6555 13.5707Z" fill="url(#paint6_linear_294_232)"/>
<path d="M25.8582 21.5177H24.5962V13.7874H22.4475V12.5078H26.1256L22.6318 7.74049L19.1361 12.5057C19.3832 12.5057 19.6155 12.5057 19.8471 12.5057C20.4596 12.5064 20.677 12.7212 20.6777 13.3242C20.6783 14.0858 20.6783 14.8475 20.6777 15.6153V16.7747H19.417V13.7739H18.4426C18.2846 13.7739 18.1259 13.7739 17.9679 13.7739C17.4824 13.7725 17.3514 13.5112 17.3169 13.3552C17.2683 13.1371 17.3149 12.869 17.4304 12.7036C17.8099 12.1593 18.2089 11.6178 18.5959 11.0945C18.7262 10.9182 18.8558 10.742 18.9855 10.5651L19.1914 10.2842C20.1213 9.01672 21.0504 7.74927 21.9802 6.48182C22.1187 6.29343 22.3368 6.04224 22.6285 6.04224C22.9229 6.04224 23.1444 6.29816 23.2855 6.48993L27.7732 12.607C27.809 12.655 27.8461 12.7049 27.8806 12.761C28.021 12.9913 28.0386 13.2397 27.9285 13.443C27.8205 13.6429 27.6071 13.7617 27.3438 13.7698C27.021 13.7793 26.6942 13.7772 26.3775 13.7752C26.2397 13.7745 26.102 13.7739 25.9635 13.7739H25.8575V21.5177H25.8582ZM25.0013 21.1125H25.453V13.368H25.9635C26.1026 13.368 26.2411 13.3687 26.3802 13.3694C26.6928 13.3714 27.0163 13.3734 27.3316 13.364C27.4464 13.3606 27.5342 13.3188 27.572 13.2492C27.6112 13.1763 27.5976 13.075 27.5348 12.9717C27.5105 12.9312 27.4802 12.8906 27.4484 12.8481L27.4201 12.8096L22.9593 6.72829C22.779 6.4825 22.6751 6.44604 22.6291 6.44604C22.5839 6.44604 22.4819 6.48182 22.307 6.72019C21.3772 7.98764 20.4474 9.25441 19.5183 10.5219L19.3123 10.8041C19.1827 10.981 19.0523 11.1579 18.922 11.3342C18.5371 11.8555 18.1387 12.395 17.7626 12.9345C17.7126 13.0061 17.689 13.1614 17.7126 13.2668C17.7275 13.3336 17.8139 13.368 17.9686 13.368C18.1266 13.368 18.2846 13.368 18.4426 13.368H19.8221V16.3689H20.2725V15.6146C20.2725 14.8468 20.2725 14.0852 20.2725 13.3242C20.2725 12.9501 20.2327 12.9116 19.8464 12.9109C19.6094 12.9109 19.3731 12.9109 19.1199 12.9109H18.3359L22.6318 7.05511L26.9251 12.9129H22.8526V13.3822H25.0013V21.1125Z" fill="url(#paint7_linear_294_232)"/>
<path d="M11.4014 27.7967C11.1117 27.7967 10.8531 27.7967 10.5742 27.7967C10.5742 26.9439 10.5742 26.0985 10.5742 25.2341C10.843 25.2341 11.1144 25.2341 11.4014 25.2341C11.4014 26.0849 11.4014 26.9304 11.4014 27.7967Z" fill="url(#paint8_linear_294_232)"/>
<path d="M11.6044 27.9992H10.3721V25.0315H11.6044V27.9992ZM10.7772 27.5941H11.1993V25.4366H10.7772V27.5941Z" fill="url(#paint9_linear_294_232)"/>
<path d="M16.5938 27.7854C16.5938 26.9555 16.5937 26.1499 16.5944 25.3437C16.5944 25.3099 16.6025 25.2761 16.6086 25.2302C16.8841 25.2302 17.1502 25.2302 17.4358 25.2302C17.4358 26.075 17.4358 26.9211 17.4358 27.7861C17.1677 27.7854 16.8963 27.7854 16.5938 27.7854Z" fill="url(#paint10_linear_294_232)"/>
<path d="M17.6378 27.9878H16.3906V27.3463C16.3906 26.6697 16.3906 26.0066 16.3913 25.3429C16.3913 25.3044 16.3967 25.2706 16.4014 25.2409C16.4035 25.2294 16.4055 25.2173 16.4068 25.2038L16.4298 25.0269H17.6378V27.9878ZM16.7965 27.5827H17.2333V25.432H16.7971C16.7965 26.0654 16.7965 26.7001 16.7965 27.3463V27.5827Z" fill="url(#paint11_linear_294_232)"/>
<defs>
<linearGradient id="paint0_linear_294_232" x1="-1.46086" y1="10.8213" x2="14.4024" y2="17.2983" gradientUnits="userSpaceOnUse">
<stop stop-color="#20D4FE"/>
<stop offset="1" stop-color="#B722FF"/>
</linearGradient>
<linearGradient id="paint1_linear_294_232" x1="-1.72835" y1="10.7419" x2="14.7014" y2="17.5309" gradientUnits="userSpaceOnUse">
<stop stop-color="#20D4FE"/>
<stop offset="1" stop-color="#B722FF"/>
</linearGradient>
<linearGradient id="paint2_linear_294_232" x1="7.17614" y1="2.94557" x2="19.801" y2="11.5055" gradientUnits="userSpaceOnUse">
<stop stop-color="#20D4FE"/>
<stop offset="1" stop-color="#B722FF"/>
</linearGradient>
<linearGradient id="paint3_linear_294_232" x1="6.90885" y1="2.86593" x2="20.0739" y2="11.7451" gradientUnits="userSpaceOnUse">
<stop stop-color="#20D4FE"/>
<stop offset="1" stop-color="#B722FF"/>
</linearGradient>
<linearGradient id="paint4_linear_294_232" x1="6.57998" y1="15.7815" x2="24.0563" y2="22.5484" gradientUnits="userSpaceOnUse">
<stop stop-color="#20D4FE"/>
<stop offset="1" stop-color="#B722FF"/>
</linearGradient>
<linearGradient id="paint5_linear_294_232" x1="6.31499" y1="15.7013" x2="24.3613" y2="22.7733" gradientUnits="userSpaceOnUse">
<stop stop-color="#20D4FE"/>
<stop offset="1" stop-color="#B722FF"/>
</linearGradient>
<linearGradient id="paint6_linear_294_232" x1="15.8452" y1="10.8194" x2="31.653" y2="17.2416" gradientUnits="userSpaceOnUse">
<stop stop-color="#20D4FE"/>
<stop offset="1" stop-color="#B722FF"/>
</linearGradient>
<linearGradient id="paint7_linear_294_232" x1="15.5778" y1="10.7401" x2="31.9515" y2="17.473" gradientUnits="userSpaceOnUse">
<stop stop-color="#20D4FE"/>
<stop offset="1" stop-color="#B722FF"/>
</linearGradient>
<linearGradient id="paint8_linear_294_232" x1="10.4413" y1="26.0121" x2="11.8682" y2="26.2859" gradientUnits="userSpaceOnUse">
<stop stop-color="#20D4FE"/>
<stop offset="1" stop-color="#B722FF"/>
</linearGradient>
<linearGradient id="paint9_linear_294_232" x1="10.174" y1="25.9324" x2="12.2515" y2="26.4454" gradientUnits="userSpaceOnUse">
<stop stop-color="#20D4FE"/>
<stop offset="1" stop-color="#B722FF"/>
</linearGradient>
<linearGradient id="paint10_linear_294_232" x1="16.4584" y1="26.0061" x2="17.9088" y2="26.2902" gradientUnits="userSpaceOnUse">
<stop stop-color="#20D4FE"/>
<stop offset="1" stop-color="#B722FF"/>
</linearGradient>
<linearGradient id="paint11_linear_294_232" x1="16.1902" y1="25.9257" x2="18.2893" y2="26.4514" gradientUnits="userSpaceOnUse">
<stop stop-color="#20D4FE"/>
<stop offset="1" stop-color="#B722FF"/>
</linearGradient>
</defs>
</svg>
